<svg width="25" height="25" viewBox="0 0 25 25" fill="none" xmlns="http://www.w3.org/2000/svg">
  <rect x="0.5" y="0.5" width="24" height="24" rx="3.5" stroke="white"/>
  <path fill-rule="evenodd" clip-rule="evenodd" d="M19.5 7C20.3284 7 21 6.32837 21 5.5C21 4.67163 20.3284 4 19.5 4C18.6716 4 18 4.67163 18 5.5C18 6.32837 18.6716 7 19.5 7ZM17 12.5C17 14.9852 14.9853 17 12.5 17C10.0147 17 8 14.9852 8 12.5C8 10.0148 10.0147 8 12.5 8C14.9853 8 17 10.0148 17 12.5ZM18 12.5C18 15.5376 15.5376 18 12.5 18C9.46243 18 7 15.5376 7 12.5C7 9.4624 9.46243 7 12.5 7C15.5376 7 18 9.4624 18 12.5Z" fill="white"/>
</svg>
